<?xml version="1.0" standalone="no"?>
<!DOCTYPE svg PUBLIC "-//W3C//DTD SVG 20010904//EN"
 "http://www.w3.org/TR/2001/REC-SVG-20010904/DTD/svg10.dtd">
<svg version="1.0" xmlns="http://www.w3.org/2000/svg"
 width="80.000000pt" height="80.000000pt" viewBox="0 0 80.000000 80.000000"
 preserveAspectRatio="xMidYMid meet">
<metadata>
Created by potrace 1.11, written by Peter Selinger 2001-2013
</metadata>
<g transform="translate(0.000000,80.000000) scale(0.100000,-0.100000)"
fill="#000000" stroke="none">
<path d="M0 605 l0 -195 50 0 c28 0 50 -4 50 -10 0 -5 -22 -10 -50 -10 l-50 0
0 -195 0 -195 195 0 195 0 0 51 c0 31 4 48 10 44 6 -3 10 -26 10 -51 l0 -44
195 0 195 0 0 195 0 195 -50 0 c-27 0 -50 5 -50 10 0 6 23 10 50 10 l50 0 0
195 0 195 -195 0 -195 0 0 -50 c0 -27 -4 -50 -10 -50 -5 0 -10 23 -10 50 l0
50 -195 0 -195 0 0 -195z m424 -176 c18 20 18 27 7 84 -22 116 -21 122 8 38
l29 -85 98 -32 99 -32 -130 -1 -130 -1 25 -24 c25 -25 25 -25 89 -10 82 19 89
12 11 -11 -34 -10 -63 -22 -66 -26 -2 -4 -18 -50 -34 -101 -16 -51 -29 -88
-30 -83 -1 6 -1 64 0 130 l1 120 -24 -23 -25 -23 20 -86 c10 -47 17 -88 14
-90 -2 -3 -16 33 -30 79 l-25 83 -83 24 c-46 13 -90 28 -98 32 -8 5 43 9 115
9 l130 0 -25 25 c-25 24 -26 24 -85 10 -89 -21 -100 -16 -20 9 l69 21 31 100
30 100 5 -129 c5 -127 5 -128 24 -107z m-112 155 c-53 -26 -81 -57 -107 -116
-8 -18 -14 -27 -15 -20 0 21 36 85 62 109 27 26 77 53 97 53 8 0 -8 -12 -37
-26z m187 12 c53 -28 118 -119 108 -150 -2 -6 -13 9 -24 34 -23 51 -50 79
-108 108 -24 13 -33 21 -22 22 10 0 31 -7 46 -14z m-238 -343 c19 -17 50 -38
69 -46 21 -9 28 -16 17 -16 -55 -3 -158 101 -156 156 0 10 8 1 19 -22 10 -22
33 -54 51 -72z m331 50 c-29 -56 -103 -114 -144 -113 -7 1 3 8 22 16 48 21
107 81 121 123 7 20 14 31 16 24 2 -6 -5 -29 -15 -50z"/>
</g>
</svg>
